<?xml version="1.0" standalone="no"?>
<!DOCTYPE svg PUBLIC "-//W3C//DTD SVG 20010904//EN"
 "http://www.w3.org/TR/2001/REC-SVG-20010904/DTD/svg10.dtd">
<svg version="1.0" xmlns="http://www.w3.org/2000/svg"
 width="70.000000pt" height="70.000000pt" viewBox="0 0 70.000000 70.000000"
 preserveAspectRatio="xMidYMid meet">
<metadata>
Created by potrace 1.14, written by Peter Selinger 2001-2017
</metadata>
<g transform="translate(0.000000,70.000000) scale(0.100000,-0.100000)"
fill="#000000" stroke="none">
<path d="M204 659 c-1 -23 -7 -45 -14 -49 -8 -5 -15 -25 -17 -46 -1 -20 -8
-43 -15 -51 -14 -17 -20 -91 -8 -98 16 -10 32 26 27 60 -4 24 -2 33 5 29 6 -4
8 -3 5 3 -4 6 0 13 8 17 8 3 15 11 15 19 0 16 37 20 47 4 13 -21 5 -161 -10
-172 -7 -5 -14 -28 -15 -50 -2 -22 -9 -43 -16 -47 -20 -11 -15 -82 5 -86 14
-2 17 4 15 37 -2 30 2 42 14 46 12 4 16 16 15 48 -2 47 10 61 37 46 12 -6 18
-21 18 -42 0 -18 0 -43 0 -57 0 -14 -7 -30 -15 -36 -8 -6 -15 -17 -15 -23 0
-7 -7 -19 -15 -27 -8 -9 -15 -33 -15 -56 0 -23 -3 -38 -7 -35 -3 4 -14 -6 -24
-23 -22 -35 -49 -31 -49 7 0 13 4 21 10 18 6 -3 11 0 11 7 8 76 7 88 -6 88 -8
0 -15 -5 -15 -12 0 -6 -7 -19 -15 -28 -9 -10 -17 -34 -19 -55 -5 -46 -19 -63
-41 -45 -8 7 -15 8 -15 3 0 -5 -6 -10 -13 -10 -19 0 -23 85 -4 92 7 3 14 22
15 43 2 20 9 43 17 52 14 16 15 83 2 97 -14 13 -25 -18 -21 -59 3 -25 0 -37
-6 -33 -6 3 -14 -5 -19 -18 -6 -14 -15 -28 -20 -32 -6 -3 -11 -22 -11 -41 0
-22 -6 -37 -15 -40 -11 -4 -15 -21 -15 -55 l0 -49 350 0 350 0 0 50 c0 35 -4
49 -12 48 -13 -3 -15 5 -17 65 -1 16 -7 27 -15 27 -8 0 -13 11 -13 28 1 34
-12 72 -23 72 -5 0 -8 16 -6 35 1 24 -3 40 -16 51 -9 9 -15 21 -12 25 3 5 0 9
-6 9 -6 0 -8 5 -4 13 6 9 4 8 -8 -1 -20 -16 -21 -70 -3 -92 7 -8 15 -35 18
-60 3 -25 6 -46 6 -48 1 -2 6 0 11 3 6 4 10 -9 10 -33 0 -23 6 -45 15 -52 28
-23 16 -104 -13 -93 -24 9 -30 21 -27 59 1 18 -1 31 -6 29 -9 -6 -21 22 -24
55 -1 14 -3 31 -4 38 0 7 -5 10 -11 7 -6 -4 -10 6 -11 22 -1 15 -2 33 -4 38
-1 6 -3 16 -3 23 -1 7 -6 11 -10 8 -5 -3 -9 0 -9 7 -4 57 -27 116 -54 137 -10
9 -16 58 -8 71 4 7 17 14 28 16 20 3 28 -16 22 -50 -2 -14 51 -98 58 -92 13
14 6 90 -10 102 -10 8 -16 24 -14 43 2 18 -4 38 -13 46 -8 9 -15 33 -15 55 0
37 -2 39 -32 39 -30 0 -31 -2 -29 -39 2 -51 -10 -71 -25 -42 -7 11 -9 21 -6
21 4 0 -1 7 -9 16 -9 8 -16 22 -16 30 0 8 -7 14 -15 14 -8 0 -15 -6 -15 -14 0
-8 -6 -21 -14 -28 -7 -8 -16 -23 -20 -35 -5 -14 -13 -19 -26 -16 -23 6 -29 20
-25 61 2 30 0 32 -29 32 -30 0 -31 -2 -32 -41z m175 -151 c0 -43 -4 -79 -10
-79 -44 -6 -44 -6 -44 61 0 49 3 64 13 62 8 -1 11 1 9 5 -3 5 0 19 5 33 15 41
27 5 27 -82z m60 -114 c12 -20 23 -52 26 -72 3 -21 11 -42 18 -47 8 -6 13 -24
12 -40 -2 -37 4 -57 16 -49 9 5 13 -16 10 -44 -1 -7 6 -25 15 -41 20 -35 12
-71 -11 -51 -10 9 -15 9 -15 1 0 -6 -5 -11 -11 -11 -5 0 -7 4 -4 10 3 6 -1 7
-9 4 -14 -5 -18 0 -15 22 0 3 -7 11 -15 17 -8 7 -16 29 -18 51 -1 21 -8 40
-15 43 -7 3 -13 21 -13 43 0 21 -7 43 -15 50 -19 16 -19 74 0 90 8 7 13 16 10
20 -3 5 -1 11 5 15 6 4 8 11 5 16 -4 5 -4 9 -2 9 3 0 15 -16 26 -36z m-89
-185 c0 -10 3 -19 8 -19 10 0 44 -60 49 -85 2 -11 -2 -30 -8 -42 -10 -19 -15
-21 -28 -10 -12 9 -13 9 -7 0 9 -16 -6 -17 -22 -1 -9 9 -12 9 -12 0 0 -10 -5
-10 -20 -2 -16 9 -19 18 -16 47 3 20 10 39 17 43 6 5 11 28 11 53 -1 37 2 45
13 40 8 -3 15 -14 15 -24z"/>
<path d="M119 413 c-7 -55 -2 -88 11 -88 19 0 22 86 3 92 -7 3 -13 1 -14 -4z"/>
</g>
</svg>
